<svg xmlns="http://www.w3.org/2000/svg" xmlns:xlink="http://www.w3.org/1999/xlink" width="20" height="30" viewBox="0 0 40 40">
  <defs>
    <clipPath id="b">
      <path d="M0 0h40v40H0z"/>
    </clipPath>
    <clipPath id="c">
      <path d="M0 0h40v40H0z"/>
    </clipPath>
    <clipPath id="d">
      <path d="M0 0h40v40H0z"/>
    </clipPath>
    <clipPath id="e">
      <path d="M0 0h40v40H0z"/>
    </clipPath>
    <clipPath id="f">
      <path d="M0 0h40v40H0z"/>
    </clipPath>
    <clipPath id="g">
      <path d="M0 0h40v40H0z"/>
    </clipPath>
    <mask id="i">
      <g filter="url(#a)">
        <path style="fill:#000;fill-opacity:.972549;stroke:none" d="M0 0h40v40H0z"/>
      </g>
    </mask>
    <mask id="k">
      <g filter="url(#a)">
        <path style="fill:#000;fill-opacity:.964706;stroke:none" d="M0 0h40v40H0z"/>
      </g>
    </mask>
    <mask id="m">
      <g filter="url(#a)">
        <path style="fill:#000;fill-opacity:.972549;stroke:none" d="M0 0h40v40H0z"/>
      </g>
    </mask>
    <mask id="o">
      <g filter="url(#a)">
        <path style="fill:#40e3d4;fill-opacity:.964706;stroke:none" d="M0 0h40v40H0z"/>
      </g>
    </mask>
    <mask id="q">
      <g filter="url(#a)">
        <path style="fill:#40e3d4;fill-opacity:.972549;stroke:none" d="M0 0h40v40H0z"/>
      </g>
    </mask>
    <mask id="s">
      <g filter="url(#a)">
        <path style="fill:#40e3d4;fill-opacity:.964706;stroke:none" d="M0 0h40v40H0z"/>
      </g>
    </mask>
    <g id="h" clip-path="url(#b)">
      <path style="stroke:none;fill-rule:evenodd;fill:#40e3d4;fill-opacity:1" d="M25.742 4.648q3.984-.393 5.625 3.204 1.95.099 3.906.117 1.958.697 1.133 2.617a1.7 1.7 0 0 1-1.133.742q-1.955.017-3.906.117-1.641 3.615-5.625 3.164-4.534-1.276-4.023-5.976c.554-2.133 1.898-3.461 4.023-3.985m.703 3.36q1.594.07 1.875 1.64-.56 2.25-2.656 1.29-1.248-1.29 0-2.579.388-.216.781-.351m0 0"/>
    </g>
    <g id="j" clip-path="url(#c)">
      <path style="stroke:none;fill-rule:evenodd;fill:#40e3d4;fill-opacity:1" d="M4.648 7.93c4.66-.012 9.325 0 13.985.039q1.722.534 1.289 2.304-.357.873-1.29 1.055-6.991.075-13.984 0-1.957-.697-1.132-2.617a1.9 1.9 0 0 1 1.132-.781m0 0"/>
    </g>
    <g id="l" clip-path="url(#d)">
      <path style="stroke:none;fill-rule:evenodd;fill:#40e3d4;fill-opacity:1" d="M12.383 14.96q3.79-.398 5.508 2.97 1.301 3.666-1.68 6.133-1.927 1.319-4.219.78-2.448-.749-3.437-3.085a93 93 0 0 0-3.907-.117Q2.926 21.1 3.36 19.336q.358-.873 1.29-1.055a93 93 0 0 0 3.906-.117q1.097-2.583 3.828-3.203m.625 3.36q1.67-.006 1.875 1.64-.153 1.484-1.64 1.642c-1.34-.262-1.825-1.043-1.446-2.344q.424-.72 1.21-.938m0 0"/>
    </g>
    <g id="n" clip-path="url(#e)">
      <path style="stroke:none;fill-rule:evenodd;fill:#40e3d4;fill-opacity:1" d="M21.29 18.242q6.991-.019 13.983.04 1.724.54 1.29 2.304-.399.825-1.29 1.055-6.992.075-13.984 0-1.722-.535-1.289-2.305.387-.866 1.29-1.094m0 0"/>
    </g>
    <g id="p" clip-path="url(#f)">
      <path style="stroke:none;fill-rule:evenodd;fill:#40e3d4;fill-opacity:1" d="M25.742 25.273q3.984-.393 5.625 3.204 1.95.099 3.906.117 1.958.696 1.133 2.617a1.7 1.7 0 0 1-1.133.742q-1.955.017-3.906.117-1.641 3.615-5.625 3.164-4.534-1.276-4.023-5.976c.554-2.133 1.898-3.461 4.023-3.985m.703 3.36q1.594.07 1.875 1.64-.56 2.25-2.656 1.29-1.248-1.29 0-2.579.388-.216.781-.351m0 0"/>
    </g>
    <g id="r" clip-path="url(#g)">
      <path style="stroke:none;fill-rule:evenodd;fill:#40e3d4;fill-opacity:1" d="M4.648 28.555c4.66-.012 9.325 0 13.985.039q1.722.534 1.289 2.304-.357.873-1.29 1.055-6.991.075-13.984 0-1.722-.54-1.289-2.305.387-.866 1.29-1.093m0 0"/>
    </g>
    <filter id="a" filterUnits="objectBoundingBox" x="0%" y="0%" width="100%" height="100%">
      <feColorMatrix in="SourceGraphic" values="0 0 0 0 1 0 0 0 0 1 0 0 0 0 1 0 0 0 1 0"/>
    </filter>
  </defs>
  <use xlink:href="#h" mask="url(#i)"/>
  <use xlink:href="#j" mask="url(#k)"/>
  <use xlink:href="#l" mask="url(#m)"/>
  <use xlink:href="#n" mask="url(#o)"/>
  <use xlink:href="#p" mask="url(#q)"/>
  <use xlink:href="#r" mask="url(#s)"/>
</svg>
