<svg xmlns="http://www.w3.org/2000/svg" width="30" height="20" viewBox="0 0 40 40">
  <path style="stroke:none;fill-rule:nonzero;fill:#40e3d4;fill-opacity:1" d="M19.723.05h.363C21.91.044 21.91.044 22.344.189c.066.003.133.011.199.011.262.02.523.047.777.117a2 2 0 0 0 .246.04c.149.015.29.054.434.093q.21.059.426.094c.32.055.633.148.949.238a.4.4 0 0 0 .074.02c.426.12.84.261 1.254.41.074.027.149.05.223.078.336.117.66.246.976.414.082.04.16.074.246.106.16.062.317.136.473.21q.046.02.086.04c.402.195.797.398 1.172.636q.122.076.25.145.251.13.484.277.043.023.078.047.035.018.075.043.032.016.062.04l.047.034v.063h.094v.062l.054.012a.6.6 0 0 1 .192.102l.07.05c.024.02.047.035.07.055l.153.11q.04.028.074.058.205.141.41.277c.024.02.047.035.07.055v.063c.016.007.036.015.051.023.094.047.176.101.262.164v.063l.066.023c.102.043.172.098.258.164l.082.066.063.059v.063a.3.3 0 0 0 .05.019c.098.055.169.125.25.203.106.102.106.102.231.184v.062a.3.3 0 0 0 .05.02c.095.054.16.125.235.203a.8.8 0 0 0 .215.184v.062c.02.008.035.016.055.023.195.11.343.313.488.48.047.056.094.102.14.15.067.066.067.066.067.128l.094.032v.062h.062q.072.083.137.164c.07.086.137.172.215.25.054.055.054.055.054.117h.063c.055.067.11.13.16.2l.043.058c.11.14.11.14.11.211h.062c.047.05.047.05.098.121.015.024.035.047.05.066.04.063.04.063.04.125h.062c.035.043.035.043.074.102l.047.063q.023.033.047.074.053.07.102.144a1 1 0 0 1 .054.075c.047.07.102.14.153.21l.046.063.094.121c.102.137.102.137.102.242h.062c.028.047.028.047.051.09q.119.208.25.41c.445.7.445.7.617 1.055q.076.148.153.289.21.398.398.813.048.093.09.187.145.299.258.61.036.106.086.206c.074.16.129.325.183.489q.063.181.137.36.091.222.152.456.049.158.102.309.039.122.066.25l.063.226c.086.309.168.614.218.926.02.102.047.195.083.293.05.188.078.379.105.574.016.082.027.16.043.242.047.247.078.489.094.739q.012.139.035.273c.12.68.11 1.363.11 2.05-.005.122 0 .243 0 .364.007 1.824.007 1.824-.138 2.258l-.011.184a4.4 4.4 0 0 1-.094.636q-.069.318-.113.64a2 2 0 0 1-.094.384 4 4 0 0 0-.04.218c-.058.329-.151.649-.241.97-.012.034-.012.034-.02.073-.12.426-.261.84-.41 1.254-.027.075-.05.149-.078.22q-.11.325-.262.64-.058.122-.105.25c-.067.172-.145.336-.223.504q-.045.095-.09.195c-.226.488-.472.96-.754 1.418q-.118.186-.218.379c-.086.16-.184.305-.286.453a1.4 1.4 0 0 0-.117.207h-.062c-.004.027-.004.027-.012.055a.6.6 0 0 1-.102.191c-.023.035-.023.035-.05.07-.02.024-.035.047-.055.07q-.054.077-.11.153-.028.04-.058.074-.142.206-.277.41l-.055.07h-.062l-.024.052a2 2 0 0 1-.164.261h-.062l-.024.067a1.1 1.1 0 0 1-.164.257l-.066.083q-.03.03-.059.062h-.062a.3.3 0 0 0-.02.05c-.055.098-.125.169-.203.25-.102.106-.102.106-.184.231h-.062l-.032.094h-.062c-.008.02-.016.035-.023.055-.047.082-.102.136-.168.203a3 3 0 0 0-.25.262c-.114.132-.235.25-.36.367q-.034.03-.062.058c-.02.02-.04.035-.063.055l-.05.05c-.055.044-.055.044-.122.075-.07.027-.07.027-.09.125h-.062v.063l-.164.136c-.086.07-.172.137-.25.215-.055.055-.055.055-.117.055v.062c-.067.055-.13.11-.2.16q-.029.025-.058.043c-.14.11-.14.11-.211.11v.062c-.05.047-.05.047-.121.098-.035.023-.035.023-.066.05-.063.04-.063.04-.126.04v.062c-.042.035-.042.035-.101.074l-.063.047q-.033.024-.074.047-.07.053-.144.102c-.024.02-.051.035-.075.054-.07.047-.14.102-.21.153l-.063.047q-.064.046-.121.093c-.137.102-.137.102-.242.102v.063h-.094v.062c-.047.035-.047.035-.117.074l-.078.047-.082.047q-.09.053-.172.105a13 13 0 0 0-.402.242 6 6 0 0 1-.618.344c-.11.055-.215.114-.324.168-.195.11-.398.207-.605.301q-.117.053-.239.113c-.113.059-.23.106-.351.153q-.094.041-.188.09c-.308.156-.648.257-.976.375q-.129.044-.258.101c-.149.059-.305.106-.461.153q-.158.047-.309.101a3 3 0 0 1-.25.066l-.226.063a9 9 0 0 1-.926.219 2 2 0 0 0-.293.082c-.336.09-.684.129-1.027.172-.098.011-.098.011-.192.047-.113.011-.226.015-.34.023-.093 0-.093 0-.16.039q-.094.005-.187.004h-4.449c-.082-.004-.082-.004-.145-.035l-.184-.012a4.4 4.4 0 0 1-.636-.094 9 9 0 0 0-.64-.113 2 2 0 0 1-.384-.094l-.316-.058A1.5 1.5 0 0 1 15 39.5l-.219-.047a2 2 0 0 1-.375-.11 3 3 0 0 0-.176-.042 5 5 0 0 1-.742-.239 5 5 0 0 0-.261-.09 8 8 0 0 1-.946-.367 3 3 0 0 0-.25-.105c-.172-.066-.336-.145-.504-.223l-.195-.09c-.469-.218-.93-.449-1.367-.726q-.13-.076-.266-.152a2.6 2.6 0 0 1-.414-.266c-.066-.047-.066-.047-.16-.074v-.063l-.05-.008a1.1 1.1 0 0 1-.282-.156q-.03-.019-.063-.043-.284-.195-.57-.402-.03-.026-.066-.05-.03-.025-.067-.048a3 3 0 0 0-.168-.113l-.078-.055v-.062l-.05-.024a2 2 0 0 1-.262-.164v-.062l-.07-.024c-.098-.043-.157-.097-.235-.168a3.5 3.5 0 0 0-.394-.328l-.051-.043v-.062a.4.4 0 0 1-.055-.028 1 1 0 0 1-.195-.129v-.062l-.094-.031v-.063l-.055-.023c-.086-.047-.144-.11-.215-.184-.09-.094-.09-.094-.199-.168v-.062l-.054-.024a.7.7 0 0 1-.192-.156 1 1 0 0 0-.066-.07 1 1 0 0 0-.067-.074c-.035-.036-.035-.036-.07-.075-.168-.18-.168-.18-.207-.261-.027-.07-.027-.07-.125-.09v-.063h-.062q-.064-.071-.122-.148a7 7 0 0 0-.34-.39c-.32-.345-.32-.345-.32-.462H4.22c-.047-.05-.047-.05-.098-.12-.023-.036-.023-.036-.05-.067-.04-.063-.04-.063-.04-.125H3.97c-.035-.043-.035-.043-.074-.102l-.047-.062c-.024-.035-.024-.035-.047-.075a2 2 0 0 1-.102-.144c-.02-.023-.035-.05-.054-.074-.047-.07-.102-.14-.153-.211l-.047-.063q-.046-.064-.093-.12c-.102-.138-.102-.138-.102-.243h-.062c-.063-.09-.094-.137-.094-.25H3.03v-.094h-.06a2 2 0 0 1-.117-.183q-.018-.025-.036-.055a7 7 0 0 1-.234-.422q-.072-.128-.148-.25a6 6 0 0 1-.395-.754q-.099-.21-.203-.414a16 16 0 0 1-.461-1.015l-.04-.094a9 9 0 0 1-.237-.621q-.061-.181-.133-.356c-.063-.148-.11-.3-.156-.457a7 7 0 0 0-.098-.308 3 3 0 0 1-.066-.25l-.063-.227a9 9 0 0 1-.219-.926c-.015-.105-.015-.105-.05-.195-.043-.129-.06-.258-.079-.39a5 5 0 0 0-.109-.552 4.5 4.5 0 0 1-.086-.722c-.005-.09-.005-.09-.04-.152q-.005-.094-.004-.188v-4.449c.004-.082.004-.082.035-.145l.012-.183a4.4 4.4 0 0 1 .094-.637c.047-.211.082-.426.113-.64.02-.134.05-.255.094-.384a4 4 0 0 0 .039-.218c.058-.328.152-.649.242-.969a20 20 0 0 1 .43-1.328c.027-.074.05-.149.078-.219q.11-.327.262-.64c.035-.083.07-.16.101-.247q.216-.543.496-1.058c.07-.13.133-.262.2-.395.09-.18.183-.355.288-.527.036-.063.07-.125.11-.188q.123-.216.258-.433c.023-.043.023-.043.047-.082q.045-.08.097-.16l.094-.164c.02-.028.02-.028.039-.059h.063v-.094h.062l.012-.054a.6.6 0 0 1 .101-.192c.024-.035.024-.035.051-.07.02-.024.035-.047.055-.07l.11-.153q.028-.04.058-.074.14-.205.277-.41l.055-.07h.062l.024-.051c.047-.094.101-.176.164-.262h.062l.024-.07a.8.8 0 0 1 .168-.23c.168-.184.328-.38.484-.575q.052-.066.106-.125h.062l.031-.094h.063l.023-.054c.047-.086.11-.145.184-.215.094-.09.094-.09.168-.2h.062l.024-.054a.6.6 0 0 1 .164-.195h.062V5.75l.114-.105q.122-.094.226-.204c.066-.066.066-.066.129-.066l.031-.094h.063V5.22c.172-.157.172-.157.25-.157V5q.074-.07.156-.129.166-.134.324-.273a.6.6 0 0 1 .27-.16v-.063c.05-.047.05-.047.12-.098.024-.015.048-.035.067-.05.063-.04.063-.04.125-.04v-.062c.043-.035.043-.035.098-.074l.066-.047q.034-.024.075-.047.068-.053.144-.102c.024-.02.05-.035.074-.054.07-.047.14-.102.211-.153l.063-.046q.064-.048.12-.094c.138-.102.138-.102.243-.102v-.062h.094V3.28c.047-.035.047-.035.117-.074q.035-.024.078-.047l.082-.047q.089-.053.172-.105.045-.022.09-.051l.305-.187c.234-.145.468-.274.714-.395q.216-.106.43-.223c.324-.172.652-.332.996-.465q.14-.06.277-.125a5 5 0 0 1 .497-.19q.116-.038.226-.09c.133-.063.27-.106.406-.153l.243-.082c.253-.086.511-.168.77-.238q.132-.037.265-.079c.117-.035.234-.062.351-.09q.124-.027.242-.062c.137-.035.266-.066.403-.094q.15-.029.3-.062.246-.053.497-.094.113-.017.226-.039c.25-.047.492-.078.742-.094q.14-.012.274-.035c.68-.12 1.363-.11 2.05-.11M17.438 11l-.122.012a2.3 2.3 0 0 0-.472.113q-.104.035-.215.059c-.707.171-1.399.53-2.012.91l-.148.082-.063.043v.062h-.094v.063q-.036.017-.074.027c-.078.031-.078.031-.144.066v.063l-.051.023a2 2 0 0 0-.262.165v.062a.4.4 0 0 0-.054.027 1 1 0 0 0-.196.13v.062l-.094.031v.063c-.015.007-.035.011-.05.019a1.1 1.1 0 0 0-.254.215l-.047.047c-.09.078-.09.078-.117.187h-.063c-.113.11-.113.11-.156.25h-.062c-.227.242-.227.242-.344.531h-.063c-.047.067-.09.13-.129.2l-.035.058c-.066.098-.066.098-.086.211h-.062q-.024.046-.047.098c-.05.101-.106.207-.164.309-.23.417-.406.851-.54 1.312q-.021.073-.05.145a6 6 0 0 0-.203.882l-.031.207a1 1 0 0 1-.016.09c-.012.082-.012.082-.027.14-.02.083-.02.157-.02.243q.001.046-.004.105v.739c-.008.625.035 1.195.195 1.8.032.11.055.223.079.333.035.144.078.28.136.418q.053.128.098.257c.23.633.559 1.196.926 1.758l.039.059q.045.072.098.137h.062l.023.05c.047.094.102.176.165.262h.062l.023.05c.133.247.383.454.582.65.02.023.02.023.043.046.168.192.168.192.383.285v.063c.047.043.047.043.106.082q.03.02.058.043c.055.035.055.035.117.031v.063c.075.058.149.109.231.16l.066.047q.102.07.204.136l.097.067c.172.113.352.207.535.297.07.035.133.07.2.109.105.058.21.105.328.148l.199.082c.23.094.457.172.695.239q.134.035.262.078c.14.043.281.07.426.094.07.011.07.011.133.043q.105.018.21.03c.04.005.075.012.114.016.37.043.742.051 1.113.051h.238c.48.016.48.016.95-.066l.152-.012c.351-.016.351-.016.66-.145l.191-.042c.254-.06.504-.125.743-.239.07-.035.144-.058.222-.082.23-.082.442-.203.657-.32l.19-.102c.102-.047.2-.105.294-.164a14 14 0 0 1 .422-.27v-.062c.195-.015.195-.015.297.051q.034.04.074.074.04.044.086.086.041.047.09.094l.097.098q.106.105.207.21l.332.336.528.532.937.949.328.332q.104.106.207.207l.094.098c.281.289.57.535.988.543h.145c.266-.008.512-.09.715-.266v-.062c.02-.008.035-.016.054-.02a.6.6 0 0 0 .196-.2V28.5h.062c.098-.187.11-.348.106-.559q.005-.044.004-.09c0-.417-.227-.687-.508-.976-.059-.055-.113-.113-.172-.168q-.047-.045-.094-.098-.105-.099-.203-.199c-.11-.105-.215-.215-.324-.32l-.797-.793-.621-.617q-.158-.159-.32-.317-.101-.1-.196-.199-.046-.047-.093-.09-.063-.065-.125-.125l-.07-.07c-.055-.07-.079-.106-.087-.192.04-.078.078-.144.125-.218.024-.035.043-.07.067-.106q.035-.054.07-.101c.238-.371.457-.746.617-1.16q.035-.089.074-.176a5 5 0 0 0 .141-.418c.027-.082.05-.164.082-.246q.074-.24.137-.48l.023-.095a7.36 7.36 0 0 0-.027-3.511q-.031-.127-.055-.254c-.043-.195-.11-.387-.172-.578-.02-.059-.035-.114-.054-.168a1 1 0 0 0-.032-.098l-.023-.082a4 4 0 0 0-.125-.273q-.053-.106-.102-.211c-.02-.035-.02-.035-.035-.075a1 1 0 0 1-.07-.152 8 8 0 0 0-.266-.504h-.062l-.012-.054a1 1 0 0 0-.082-.196h-.062l-.008-.05c-.035-.106-.098-.192-.16-.286q-.023-.03-.04-.058L25.375 14h-.062l-.024-.05a2 2 0 0 0-.164-.262h-.062v-.063H25c-.008-.02-.016-.035-.023-.055-.047-.086-.106-.144-.172-.21l-.082-.083-.082-.082-.082-.086q-.042-.035-.082-.078l-.075-.074c-.054-.059-.054-.059-.12-.05v-.063c-.067-.063-.067-.063-.153-.13l-.086-.07c-.066-.058-.066-.058-.137-.05v-.063c-.047-.043-.047-.043-.105-.082l-.07-.047q-.036-.022-.07-.047l-.071-.046c-.113-.09-.113-.09-.246-.121v-.063c-.117-.07-.117-.07-.25-.094v-.062c-.035-.02-.074-.035-.11-.055l-.257-.129a11 11 0 0 0-.82-.379c-.028-.011-.06-.023-.087-.035a6 6 0 0 0-.226-.09l-.063-.023c-.222-.082-.457-.13-.687-.18a3 3 0 0 1-.164-.043 6.6 6.6 0 0 0-1.637-.172h-.316c-.66-.023-.66-.023-1.29.137m0 0"/>
  <path style="stroke:none;fill-rule:nonzero;fill:#40e3d4;fill-opacity:1" d="M18.984 13.273h.082c.13.004.247.012.372.04l.187.007c.203.016.398.051.602.094.043.012.043.012.085.02.172.043.333.093.493.164q.104.04.215.074c.113.035.214.082.316.137q.075.04.156.074c.238.117.477.242.695.398v.063l.055.023q.113.064.219.133l.074.047.059.047v.062l.093.031v.063c.016.008.036.012.051.02.102.058.176.132.254.214l.047.047c.117.117.117.117.117.188h.063c.062.066.062.066.129.152q.035.04.07.086c.05.074.05.074.05.137h.063v.094h.063c.152.187.265.41.375.624l.047.09c.66 1.278.773 2.754.39 4.13q-.029.064-.062.124l-.043.153c-.067.226-.149.43-.27.628-.023.051-.043.106-.066.157-.059.133-.14.254-.215.375l-.043.074c-.016.023-.027.047-.043.07l-.035.063c-.02.02-.02.02-.035.043h-.063l-.011.054c-.02.07-.02.07-.082.165h-.063c-.012.035-.012.035-.02.07-.05.105-.113.16-.199.242q-.074.088-.144.176l-.043.043h-.063l-.031.093c-.047.051-.047.051-.11.102l-.054.047c-.055.039-.055.039-.117.039v.063l-.157.062v.063q-.088.069-.183.132l-.055.04a8 8 0 0 1-.48.296l-.106.059c-.27.152-.539.262-.836.36q-.076.023-.16.054c-.242.086-.488.14-.742.183-.031.004-.062.012-.094.016a5 5 0 0 1-.816.055h-.063a5.2 5.2 0 0 1-1.543-.227 3 3 0 0 1-.547-.191 1.4 1.4 0 0 0-.18-.067c-.183-.066-.343-.175-.507-.273-.113-.066-.227-.133-.344-.187v-.063l-.066-.023c-.465-.207-.926-.735-1.235-1.133-.011-.02-.027-.035-.043-.055-.093-.125-.093-.125-.093-.195h-.063v-.094h-.062c-.2-.266-.336-.574-.473-.875a3 3 0 0 0-.074-.16 5 5 0 0 1-.266-.84l-.015-.062a4.7 4.7 0 0 1-.118-1.168v-.196c0-.418.043-.824.145-1.23.008-.04.008-.04.02-.078.039-.16.09-.305.16-.453a3 3 0 0 0 .074-.208c.035-.109.078-.21.133-.312.043-.078.078-.156.117-.234.09-.184.18-.36.297-.528h.062v-.094h.063l.023-.07a.9.9 0 0 1 .164-.242h.063q.032-.075.062-.156h.063l.02-.051c.054-.098.128-.168.206-.246q.024-.018.047-.043c.29-.285.29-.285.383-.285v-.063c.047-.043.047-.043.11-.09q.034-.021.07-.05l.078-.055.078-.055a3 3 0 0 1 .527-.308c.082-.036.082-.036.168-.102.114-.07.227-.11.352-.152a2 2 0 0 0 .21-.094c.231-.102.477-.156.72-.219l.085-.023c.391-.086.805-.106 1.211-.11m0 0"/>
</svg>
